<?xml version="1.0" encoding="utf-8"?>
<!-- Generator: Adobe Illustrator 16.0.4, SVG Export Plug-In . SVG Version: 6.00 Build 0)  -->
<!DOCTYPE svg PUBLIC "-//W3C//DTD SVG 1.1//EN" "http://www.w3.org/Graphics/SVG/1.1/DTD/svg11.dtd">
<svg version="1.1" id="Layer_1" xmlns="http://www.w3.org/2000/svg" xmlns:xlink="http://www.w3.org/1999/xlink" x="0px" y="0px"
	 width="72px" height="72px" viewBox="0 0 72 72" enable-background="new 0 0 72 72" xml:space="preserve">
<g>
	<g>
		<path fill="#FFFFFF" d="M33.25,56.974c-6.95,0-11.618-3.976-11.618-9.895V44.96c-4.609-3.971-8.087-7.958-8.087-17.822
			c0-6.834,4.353-12.344,6.948-15.021c4.102-4.228,9.603-6.556,15.491-6.556c6.034,0,11.832,2.553,15.911,7.002
			c2.979,3.25,6.528,8.417,6.528,14.574c0,10.713-3.685,14.021-7.989,17.733v2.208c0,5.919-4.668,9.895-11.618,9.895H33.25
			L33.25,56.974z"/>
	</g>
	<g>
		<path fill="#DCDDDE" d="M49.294,38.804c0,0,1.346,7.537,0.27,10.408c-1.077,2.872-5.294,7.178-6.64,7.088l-2.243,1.077v-9.062
			c0,0,0.793-0.298,1.455-0.319c0.072-1.554-0.011-3.288-1.096-4.436c-1.525-1.615-3.229,0.269-5.562-0.449
			c-2.333-0.717-1.884-3.41-1.884-3.41s5.473,1.437,4.487-3.138c-0.791-3.664-2.603-10.498,0.807-14.804
			C42.297,17.451,51,18.438,54.05,24.45C57.1,30.46,51.179,37.189,49.294,38.804z M45.122,25.795c-2.452,0-4.441,2.047-4.441,4.576
			c0,2.529,1.989,4.576,4.441,4.576s4.441-2.047,4.441-4.576C49.563,27.843,47.576,25.795,45.122,25.795z"/>
	</g>
	<g>
		<path d="M35.983,6.639c5.984,0,11.371,2.564,15.117,6.654c3.344,3.648,6.245,8.508,6.245,13.845
			c0,10.524-3.631,13.481-7.988,17.24v2.701c0,5.82-4.721,8.818-10.542,8.818H33.25c-5.821,0-10.542-2.998-10.542-8.818v-2.614
			c-4.416-3.76-8.087-7.339-8.087-17.327c0-5.547,3.066-10.581,6.644-14.271C24.992,9.026,30.209,6.639,35.983,6.639 M35.983,4.485
			c-6.182,0-11.957,2.444-16.263,6.883c-4.676,4.823-7.251,10.424-7.251,15.77c0,10.052,3.452,14.263,8.087,18.314v1.627
			c0,6.562,5.101,10.972,12.695,10.972h5.566c7.594,0,12.695-4.41,12.695-10.972v-1.715c4.179-3.62,7.988-7.347,7.988-18.226
			c0-6.503-3.704-11.911-6.811-15.301C48.407,7.165,42.319,4.485,35.983,4.485L35.983,4.485z"/>
	</g>
	<g>
		<path d="M43.536,48.118h-15.42c-0.297,0-0.538-0.242-0.538-0.539s0.241-0.538,0.538-0.538h15.42c0.297,0,0.539,0.241,0.539,0.538
			S43.833,48.118,43.536,48.118z"/>
	</g>
	<g>
		<path fill="#F04E37" d="M32.396,30.286c0,3.128-2.535,5.665-5.666,5.665c-3.129,0-5.665-2.536-5.665-5.665
			s2.536-5.666,5.665-5.666C29.861,24.62,32.396,27.157,32.396,30.286"/>
	</g>
	<g>
		<path d="M29.376,30.286c0,1.514-1.228,2.742-2.742,2.742c-1.515,0-2.741-1.228-2.741-2.742s1.227-2.743,2.741-2.743
			C28.148,27.543,29.376,28.772,29.376,30.286"/>
	</g>
	<g>
		<path fill="#F04E37" d="M50.699,30.286c0,3.128-2.535,5.665-5.665,5.665s-5.665-2.536-5.665-5.665s2.535-5.666,5.665-5.666
			S50.699,27.157,50.699,30.286"/>
	</g>
	<g>
		<path d="M17.73,22.389c0,0-4.739,4.739-1.844,14.089c2.895,9.35-1.75,0.535-1.75,0.535S10.092,26.338,17.73,22.389"/>
	</g>
	<g>
		<path d="M54.183,22.389c0,0,4.738,4.739,1.844,14.089c-2.895,9.35,1.75,0.535,1.75,0.535S61.818,26.338,54.183,22.389"/>
	</g>
	<g>
		<path d="M46.75,19.724c1.764,0,3.425,0.427,4.903,1.165c-1.559-1.482-3.662-2.396-5.982-2.396c-4.161,0-7.633,2.924-8.487,6.827
			C39.068,21.981,42.644,19.724,46.75,19.724"/>
	</g>
	<g>
		<path d="M25.329,19.724c-1.765,0-3.426,0.427-4.904,1.165c1.56-1.482,3.663-2.396,5.983-2.396c4.159,0,7.633,2.924,8.487,6.827
			C33.01,21.981,29.436,19.724,25.329,19.724"/>
	</g>
	<g>
		<ellipse cx="32.18" cy="41.431" rx="1.548" ry="0.785"/>
	</g>
	<g>
		<ellipse cx="40.166" cy="41.431" rx="1.548" ry="0.785"/>
	</g>
	<g>
		<g>
			<path d="M36.307,43.204c-1.452,0-1.929-0.396-2.39-0.781c-0.196-0.163-0.383-0.317-0.677-0.465
				c-0.841-0.421-1.577-0.158-1.586-0.157l-0.384-1.005c0.047-0.02,1.179-0.438,2.452,0.199c0.405,0.202,0.671,0.425,0.884,0.602
				c0.384,0.319,0.639,0.531,1.7,0.531c1.068,0,1.537-0.355,2.034-0.732c0.576-0.436,1.227-0.931,2.573-0.622l-0.24,1.051
				c-0.856-0.198-1.167,0.038-1.684,0.43C38.432,42.678,37.737,43.204,36.307,43.204z"/>
		</g>
	</g>
	<g>
		<rect x="30.871" y="47.487" width="0.646" height="8.613"/>
	</g>
	<g>
		<rect x="40.022" y="47.487" width="0.646" height="8.613"/>
	</g>
	<g>
		<path d="M47.813,30.286c0,1.514-1.228,2.742-2.742,2.742s-2.74-1.228-2.74-2.742s1.227-2.743,2.74-2.743
			C46.586,27.543,47.813,28.772,47.813,30.286"/>
	</g>
	<g>
		<path fill="#F04E37" d="M48.468,44.462c-2.744,0-4.979-2.234-4.979-4.979c0-2.745,2.235-4.979,4.979-4.979
			c2.746,0,4.979,2.234,4.979,4.979C53.447,42.228,51.215,44.462,48.468,44.462z M48.468,35.58c-2.151,0-3.903,1.75-3.903,3.902
			s1.752,3.902,3.903,3.902c2.153,0,3.903-1.75,3.903-3.902S50.621,35.58,48.468,35.58z"/>
	</g>
	<g>
		<path fill="#F04E37" d="M48.468,42.477c-1.65,0-2.993-1.344-2.993-2.994c0-1.649,1.344-2.993,2.993-2.993
			c1.65,0,2.994,1.344,2.994,2.993C51.462,41.133,50.12,42.477,48.468,42.477z M48.468,37.565c-1.057,0-1.917,0.86-1.917,1.917
			s0.86,1.918,1.917,1.918c1.058,0,1.918-0.861,1.918-1.918S49.526,37.565,48.468,37.565z"/>
	</g>
	<g>
		<path fill="#F04E37" d="M49.372,39.482c0,0.498-0.404,0.903-0.904,0.903c-0.498,0-0.902-0.405-0.902-0.903
			s0.404-0.903,0.902-0.903C48.968,38.579,49.372,38.984,49.372,39.482"/>
	</g>
	<g>
		<path fill="#F04E37" d="M23.827,44.462c-2.746,0-4.979-2.234-4.979-4.979c0-2.745,2.234-4.979,4.979-4.979
			c2.745,0,4.979,2.234,4.979,4.979C28.807,42.228,26.572,44.462,23.827,44.462z M23.827,35.58c-2.152,0-3.903,1.75-3.903,3.902
			s1.75,3.902,3.903,3.902s3.903-1.75,3.903-3.902S25.979,35.58,23.827,35.58z"/>
	</g>
	<g>
		<path fill="#F04E37" d="M23.827,42.477c-1.652,0-2.995-1.344-2.995-2.994c0-1.649,1.344-2.993,2.995-2.993
			c1.65,0,2.994,1.344,2.994,2.993C26.821,41.133,25.478,42.477,23.827,42.477z M23.827,37.565c-1.058,0-1.918,0.86-1.918,1.917
			S22.77,41.4,23.827,41.4s1.917-0.861,1.917-1.918S24.884,37.565,23.827,37.565z"/>
	</g>
	<g>
		<path fill="#F04E37" d="M24.73,39.482c0,0.498-0.404,0.903-0.903,0.903c-0.5,0-0.904-0.405-0.904-0.903s0.404-0.903,0.904-0.903
			C24.327,38.579,24.73,38.984,24.73,39.482"/>
	</g>
	<g>
		<path d="M39.402,36.789c0,0-1.48-9.085,3.769-11.708C43.171,25.081,36.374,26.292,39.402,36.789z"/>
	</g>
	<g>
		<path d="M36.105,42.441c0,0-2.558-0.604-2.49-3.565c0,0-2.019,1.548,0.741,3.768L36.105,42.441z"/>
	</g>
	<g>
		<path fill="#F04E37" d="M28.658,47.489c0,0,1.524-1.814,3.41-2.02c2.467-0.269,4.038,0.718,4.038,0.718s3.634-2.197,6.863,1.255
			c0,0-1.346,2.288-6.998,2.244C29.825,49.638,28.658,47.489,28.658,47.489z"/>
	</g>
	<g>
		<g>
			<circle fill="#F04E37" cx="35.601" cy="63.134" r="3.062"/>
		</g>
		<g>
			<path fill="#F04E37" d="M34.054,61.609c0,0-7.26-2.735-8.168-2.663c-0.907,0.074-0.484,5.62,0.183,7.912
				c0.665,2.29,7.985-2.146,8.228-2.22C34.538,64.565,34.054,61.609,34.054,61.609z"/>
		</g>
		<g>
			<path fill="#F04E37" d="M37.048,61.609c0,0,7.261-2.735,8.168-2.663c0.907,0.074,0.484,5.62-0.182,7.912
				c-0.666,2.29-7.986-2.146-8.229-2.22C36.563,64.565,37.048,61.609,37.048,61.609z"/>
		</g>
	</g>
	<g>
		<path d="M19.821,11.622c0,0-9.893-1.681-14.333,6.932l1.951-0.336c0,0-8.479,6.864-4.643,15.208c0,0,0.27-1.952,0.875-3.028
			c0,0,0.134,9.354,5.787,13.661L9.188,41.3c0,0,2.087,4.509,7.133,6.191c0,0-0.203-1.885,0.942-2.691l1.817,3.499l1.951-3.365
			c0,0-5.518-4.24-6.729-10.228c-1.211-5.989-1.346-12.718,2.557-17.832S19.821,11.622,19.821,11.622z"/>
	</g>
	<g>
		<path d="M52.18,11.622c0,0,9.893-1.681,14.333,6.932l-1.952-0.336c0,0,8.479,6.864,4.644,15.208c0,0-0.27-1.952-0.875-3.028
			c0,0-0.135,9.354-5.787,13.661l0.27-2.759c0,0-2.086,4.509-7.133,6.191c0,0,0.202-1.885-0.942-2.691l-1.816,3.499l-1.952-3.365
			c0,0,5.519-4.24,6.729-10.228c1.211-5.989,1.346-12.718-2.558-17.832C51.237,11.76,52.18,11.622,52.18,11.622z"/>
	</g>
	<g>
		<path d="M49.631,36.506c0,0.859-0.837,1.555-1.866,1.555h-5.313c-1.03,0-1.866-0.696-1.866-1.555l0,0
			c0-0.862,0.836-1.558,1.866-1.558h5.313C48.794,34.948,49.631,35.644,49.631,36.506L49.631,36.506z"/>
	</g>
	<g>
		<path d="M31.166,36.506c0,0.859-0.837,1.555-1.866,1.555h-5.313c-1.029,0-1.866-0.696-1.866-1.555l0,0
			c0-0.862,0.836-1.558,1.866-1.558H29.3C30.329,34.948,31.166,35.644,31.166,36.506L31.166,36.506z"/>
	</g>
</g>
</svg>
