<svg enable-background="new 0 0 72 72" viewBox="0 0 72 72" xmlns="http://www.w3.org/2000/svg"><ellipse cx="35.9" cy="64.9" fill="#bbbdbf" rx="31" ry="5.4"/><path clip-rule="evenodd" d="m18.6 64.9h34.1c1.9 0 3.5-1.4 3.8-3.3 1.5-9.1 7.9-33.7 5.6-47.2 0 0-4-10.3-13.6-10.3-7.8 0-8.2 12.7-8.2 12.7l-26.4 5.2c-1.1.2-1.9 1.1-1.9 2.2l-1.8 30.9c0 .7.2 1.5.7 2.1l5.4 6.6c.5.7 1.4 1.1 2.3 1.1z" fill="#be202e" fill-rule="evenodd"/><path clip-rule="evenodd" d="m10.9 56.3h37.9s4.5-33.3 4.8-36.7-.1-11.9-1.8-13.8c0 0 9 .3 9.5 9s-1.3 25.5-1.3 25.5l-3.2 23.5s-7.3.5-21.1.6c-13.7.1-19.2-.7-19.2-.7z" fill="#821429" fill-rule="evenodd"/><path d="m53.2 67.4h-34.6c-1.7 0-3.2-.7-4.3-2l-5.4-6.6c-.9-1.1-1.3-2.5-1.2-3.8l1.8-30.9c.1-2.2 1.8-4.1 4-4.5l24.5-4.8c.2-1.3.5-3.2 1.1-5.1 2.3-7 6.9-8.1 9.4-8.1 2.6 0 5.1.6 7.4 1.7 5.5 2.7 9.1 8.6 9.1 14.9 0 16-2.7 32.5-4.2 41.3l-.3 1.7c-.6 3.6-3.8 6.2-7.3 6.2zm-38.7-42.9-1.8 30.8c0 .1 0 .2.1.3l5.4 6.6c.1.1.2.2.4.2h34.7c1 0 2-.9 2.2-1.9l.3-1.7c1.4-8.7 4.1-24.9 4.1-40.5 0-4.4-2.5-8.5-6.3-10.4-1.6-.8-3.4-1.2-5.2-1.2-5.2 0-5.6 10.2-5.6 10.3 0 1.2-.9 2.2-2 2.4z"/><path d="m40.5 31.3c-.6-.1-1.1-.5-1-1.1l1.4-15.7c.1-.6.5-1 1.1-.9.6 0 1 .5.9 1.1l-1.4 15.7c0 .5-.4.9-1 .9z"/><path d="m30.4 30.2c-.6 0-1-.5-1-1.1l.6-9c0-.6.5-1 1.1-.9.6 0 1 .5.9 1.1l-.6 9c0 .5-.4.9-1 .9z"/><path d="m20.8 37.3c-.6 0-1-.5-1-1.1l.8-14.7c0-.6.5-1 1.1-1s1 .5 1 1.1l-.8 14.7c-.1.6-.6 1-1.1 1z"/><path d="m49.2 57.3h-38.3c-.6 0-1-.5-1-1s.5-1 1-1h37.4c.6-4.4 3.1-24.2 3.6-30.1.1-1.1.2-2.3.4-3.6.7-6.1 1.6-13.1-2.7-15-.5-.2-.7-.8-.5-1.3s.8-.7 1.3-.5c5.6 2.5 4.6 10.5 3.8 17-.1 1.2-.3 2.4-.4 3.5-.6 6.6-3.6 30.8-3.7 31.1 0 .5-.4.9-.9.9z"/><path d="m42 48.5c-.2 0-.4-.1-.6-.2-3.6-2.6-4.6-6-4.9-7.7-4.7.1-7.9-1.1-9.6-3.5-2.4-3.4-.7-7.8-.6-8 .2-.4.6-.7 1-.6l12.5.6c.2 0 .4.1.5.2l11.2 7.3c.5.3.6.9.3 1.4s-.9.6-1.4.3l-11-7.2-11.5-.6c-.3 1.2-.7 3.6.6 5.5 1.4 2 4.4 2.8 8.8 2.7.3 0 .5.1.7.3s.3.5.3.7 0 4.1 4.1 7.1c.5.3.6 1 .2 1.4 0 .2-.3.3-.6.3z"/><path d="m20.6 37.3c-4.5 0-8.6-.7-8.8-.8-.5-.1-.9-.6-.8-1.2.1-.5.6-.9 1.2-.8.1 0 9 1.6 14.6.1.5-.1 1.1.2 1.2.7s-.2 1.1-.7 1.2c-2.1.6-4.5.8-6.7.8z"/><path d="m55.9 64.1c-.3 0-.5-.1-.7-.3l-7.1-6.9c-.4-.4-.4-1 0-1.4s1-.4 1.4 0l7.1 6.9c.4.4.4 1 0 1.4-.2.2-.5.3-.7.3z"/><path d="m17.1 48.1h-.3c-.4 0-.8-.4-.8-.8s.4-.8.8-.8h.5l.3-1.8h-.4c-.4 0-.8-.4-.8-.8s.4-.8.8-.8h.7l.2-1.2c.1-.4.4-.6.8-.6.5 0 .8.4.8.9l-.2.9h1.6l.2-1.2c.1-.4.4-.6.8-.6.5 0 .8.4.8.9l-.2.9h.3c.4 0 .8.4.8.8s-.4.8-.8.8h-.5l-.3 1.8h.4c.4 0 .8.4.8.8s-.4.8-.8.8h-.7l-.2 1.2c-.1.4-.4.6-.8.6-.5 0-.9-.4-.8-.9l.2-1h-1.6l-.2 1.2c-.1.3-.3.6-.8.6s-.9-.4-.8-.9zm3.5-1.5.3-1.8h-1.6l-.3 1.8z" fill="#faaf42"/><path d="m35.7 50.2c-.5 0-.9-.3-.9-.8l-.3-6.8c0-.3-.3-.6-.6-.6h-5c-.2 0-.3.1-.4.2l-2.9 3.2c-.3.4-.1.9.4 1l1.2.1c.3 0 .6.3.5.7l-.3 2.3c0 .4-.4.7-.8.7h-.2c-.4 0-.7.3-.7.7v2c0 .4.3.7.7.7h9.3c.4 0 .7-.3.7-.7v-2c0-.3-.3-.7-.7-.7z" fill="#faaf42"/><path d="m40.8 60.8h-16.5c-.6 0-1-.5-1-1s.5-1 1-1h16.4c.6 0 1 .5 1 1s-.4 1-.9 1z"/></svg>