<svg enable-background="new 0 0 72 72" height="72" viewBox="0 0 72 72" width="72" xmlns="http://www.w3.org/2000/svg"><path d="m58.387 18.39s7.727 8.979 4.856 20.901l-1.398-.662s2.135 5.961-2.943 10.597v-1.545s-.441 1.692-2.723 2.723c0 0 2.575 9.641-3.68 14.498l.146-1.691s-2.943 5.004-10.229 6.254l.661-1.25-5.517 1.985h-3.117l-5.52-1.986.662 1.25c-7.286-1.25-10.23-6.254-10.23-6.254l.147 1.691c-6.255-4.857-3.68-14.498-3.68-14.498-2.282-1.03-2.723-2.723-2.723-2.723v1.545c-5.077-4.636-2.944-10.597-2.944-10.597l-1.398.662c-2.871-11.921 4.857-20.9 4.857-20.9s7.507-11.775 22.005-11.775c14.499 0 22.768 11.775 22.768 11.775"/><path d="m33.403 63.727c-7.655 0-13.882-6.226-13.882-13.882v-1.464c-4.948-4.578-7.771-11.001-7.771-17.754 0-13.335 10.849-24.184 24.184-24.184s24.184 10.848 24.184 24.184c0 6.753-2.822 13.176-7.771 17.754v1.464c0 7.656-6.228 13.882-13.882 13.882z" fill="#f7941e"/><path d="m34.729 62.816s2.354-1.373 2.845-4.121 2.846-1.864 3.435-5.004c.589-3.141-2.158-4.416-2.158-4.416l-2.552-.196.294-4.023s-1.079-13.542-.098-15.308c.981-1.767 11.381-3.728 11.97-7.261.589-3.532 7.654-12.265 9.322-11.186 1.669 1.079.197 9.321.589 12.854.393 3.532-5.985 6.575-5.985 6.575s3.21 7.647-1.832 12.802c0 0 1.929 4.469 1.439 10.454-.489 5.985-10.007 11.382-17.269 8.83z" fill="#c27514"/><path d="m35.934 8.21c12.382 0 22.417 10.036 22.417 22.418 0 6.778-3.014 12.85-7.77 16.96v2.256c0 6.692-5.424 12.117-12.116 12.117h-5.063c-6.693 0-12.117-5.425-12.117-12.117v-2.256c-4.756-4.11-7.771-10.183-7.771-16.96.002-12.382 10.04-22.418 22.42-22.418m0-3.533c-14.308 0-25.951 11.642-25.951 25.951 0 6.984 2.814 13.638 7.771 18.508v.708c0 8.631 7.021 15.65 15.649 15.65h5.063c8.629 0 15.648-7.02 15.648-15.65v-.708c4.957-4.87 7.771-11.524 7.771-18.508-.001-14.309-11.641-25.951-25.951-25.951"/><path d="m44.086 52.905c0 2.548-3.713 4.612-8.292 4.612s-8.291-2.064-8.291-4.612c0-2.547 3.712-4.612 8.291-4.612s8.292 2.065 8.292 4.612"/><path d="m37.596 40.479c-.927-1.533-2.477-1.55-3.441-.035l-2.146 2.445c-.965 1.514-.148 2.755 1.817 2.755h3.871c1.964 0 2.814-1.255 1.888-2.79z"/><path d="m21.431 51.573v-8.042s-3.029 2.298-3.237 5.952c-.21 3.656 1.985 3.551 3.237 2.09"/><path d="m50.56 51.573v-8.042s3.029 2.298 3.238 5.952c.21 3.656-1.985 3.551-3.238 2.09"/><path d="m11.704 21.604s0-15.211.687-18.84c.688-3.631 12.658 4.122 15.013 4.807 0 0-5.396 3.238-8.634 6.281-3.238 3.042-6.574 10.402-6.574 10.402s-.492.489-.492-2.65"/><path d="m60.179 21.604s0-15.211-.687-18.84c-.687-3.632-12.658 4.121-15.013 4.806 0 0 5.396 3.238 8.635 6.281s6.573 10.402 6.573 10.402.492.49.492-2.649"/><g fill="#fff"><path d="m35.409 52.182c-.032-1.235-.559-2.22-1.206-2.22-.65 0-1.174.984-1.207 2.22z"/><path d="m38.576 52.182c-.03-1.235-.559-2.22-1.205-2.22-.648 0-1.174.984-1.207 2.22z"/><path d="m32.114 52.356s.098-2.046-1.325-1.953c-1.422.094-1.374 3.767.442 5.299 0 0 .883-1.349.883-3.346"/><path d="m39.457 52.356s-.097-2.046 1.324-1.953c1.424.094 1.375 3.767-.441 5.299 0 0-.883-1.349-.883-3.346"/></g><path d="m58.609 32.811c-.543-5.784-5.489-10.315-11.516-10.315-5.425 0-9.966 3.677-11.213 8.632-1.248-4.955-5.787-8.632-11.212-8.632-5.988 0-10.913 4.474-11.505 10.207 0 0-3.959-7.984 6.196-19.391 10.157-11.408 26.69-7.212 33.755.539 7.064 7.753 5.495 18.96 5.495 18.96"/><path d="m31.796 46.944s-5.446-.589-7.581 3.827.516 8.906 4.709 10.45c4.195 1.547-4.489 2.136-4.489 2.136l-5.446-3.386s-1.104-4.712-.883-6.551c.22-1.839 1.397-4.931 1.397-4.931s4.859-4.857 12.293-1.545"/><path d="m39.642 46.944s5.446-.589 7.579 3.827c2.136 4.416-.514 8.906-4.708 10.45-4.194 1.547 4.488 2.136 4.488 2.136l5.446-3.386s1.104-4.712.883-6.551c-.222-1.838-1.399-4.931-1.399-4.931s-4.858-4.857-12.289-1.545"/><path d="m51.687 46.812c2.481-1.925 4.077-4.896 4.077-8.232 0-5.798-4.812-10.497-10.745-10.497-3.791 0-7.114 1.921-9.028 4.817-1.912-2.896-5.238-4.817-9.028-4.817-5.934 0-10.745 4.698-10.745 10.497 0 3.282 1.541 6.208 3.953 8.136v2.561s-9.84-4.121-8.368-19.822c1.472-15.7 29.438-16.386 40.134-9.321 10.695 7.065 8.046 13.247 8.046 15.602s-4.906 11.187-7.359 12.265c-2.454 1.078-.937-1.189-.937-1.189"/><path d="m24.278 32.711c-1.093.655-1.831 1.837-1.831 3.203 0 2.069 1.677 3.746 3.745 3.746 1.919 0 3.48-1.448 3.701-3.306z"/><path d="m22.694 31.416 9.125 5.888s-7.555.295-9.125-5.888"/><path d="m47.161 32.711c1.092.655 1.83 1.837 1.83 3.203 0 2.069-1.676 3.746-3.744 3.746-1.918 0-3.479-1.448-3.699-3.306z"/><path d="m48.743 31.416-9.126 5.888s7.558.295 9.126-5.888"/><path d="m26.521 35.929c0 .705-.57 1.277-1.275 1.277s-1.276-.572-1.276-1.277.571-1.274 1.276-1.274 1.275.569 1.275 1.274" fill="#fff"/><path d="m14.207 18.096s1.766-3.533 5.74-6.549l-5.226-3.312z" fill="#f7941e"/><path d="m57.848 18.096s-1.766-3.533-5.74-6.549l5.227-3.312z" fill="#f7941e"/><path d="m28.792 40.569s-2.652.364-5.094-.321c-2.44-.686-3.366.283-3.493 1.051-.127.766.463 1.772 3.199 1.978 2.737.201 5.599.402 6.188-.849s.043-1.938-.8-1.859z"/><path d="m42.774 40.569s2.651.364 5.094-.321c2.441-.686 3.365.283 3.493 1.051.128.766-.463 1.772-3.199 1.978-2.736.201-5.599.402-6.188-.849-.59-1.251-.042-1.938.8-1.859z"/><path d="m35.99 27.883c-1.561-1.005-2.221-1.601-2.221-2.767v-16.393c0-1.163.996-2.108 2.221-2.108 1.227 0 2.221.945 2.221 2.108v16.393c0 1.166-.902 1.796-2.221 2.767z" fill="#f7941e"/><path d="m47.715 35.929c0 .705-.569 1.277-1.273 1.277-.706 0-1.276-.572-1.276-1.277s.57-1.274 1.276-1.274c.704 0 1.273.569 1.273 1.274" fill="#fff"/></svg>