<svg enable-background="new 0 0 72 72" viewBox="0 0 72 72" xmlns="http://www.w3.org/2000/svg"><ellipse cx="37.7" cy="66.3" fill="#bbbdbf" rx="26.5" ry="3.9"/><path d="m62.1 18.8h-49.3c-1.4 0-2.5-1.1-2.5-2.5s1.1-2.5 2.5-2.5h49.3c1.4 0 2.5 1.1 2.5 2.5s-1.1 2.5-2.5 2.5z"/><path d="m58.4 16.3h-42.1l8.1 48.9h25.9z" fill="#be202e"/><path d="m51.2 39c-6.4 9-16.9 14.9-28.8 15.2l1.9 11.5h25.8l4.5-26.7z" fill="#821429"/><path d="m36.2 13.8-7.4 1.6-8.6 16.9 2.1 14.8c7.8-.5 14-7 14-14.9z" fill="#821429"/><path d="m54.1 40.1h-33.2c-.6 0-1-.5-1-1s.5-1 1-1h33.2c.6 0 1 .5 1 1s-.4 1-1 1z"/><path d="m50.3 67.8h-25.9c-1.2 0-2.3-.9-2.5-2.1l-8.1-48.9c-.1-.7.1-1.5.6-2s1.2-.9 1.9-.9h42c.7 0 1.4.3 1.9.9s.7 1.3.6 2l-8.1 48.9c-.1 1.2-1.2 2.1-2.4 2.1zm-23.7-5.1h21.5l7.3-43.9h-36z"/><path d="m51.1 59.4h-28c-.6 0-1-.5-1-1s.5-1 1-1h28c.6 0 1 .5 1 1s-.4 1-1 1z"/><path d="m60.9 14.6c0-5.9-4.8-10.6-10.7-10.6-2.7 0-5.2 1-7.1 2.7-1 .9-2.5.9-3.6.2-1.4-.9-3.1-1.5-4.9-1.5-3 0-5.6 1.4-7.2 3.6-.8 1.1-2.2 1.5-3.5 1-1.2-.5-2.4-.7-3.8-.7-5.7.1-10.4 4.7-10.4 10.5v12.1c0 5.7 4.7 10.4 10.4 10.4s10.4-4.7 10.4-10.4v-7.9c0-4.7 2.2-7.8 8.9-7.8h21.3c.1-.5.2-1 .2-1.6z" fill="#fff"/><path d="m20.2 44.9c-7.1 0-13-5.8-13-13v-12.1c0-7.1 5.8-13 13-13 1.6 0 3.2.3 4.7.9.2.1.4 0 .5-.1 2.2-3 5.6-4.6 9.2-4.6 2.2 0 4.4.6 6.3 1.9.2.1.4.1.5 0 2.4-2.2 5.5-3.4 8.8-3.4 7.3 0 13.2 5.9 13.2 13.2 0 .6-.1 1.3-.2 2-.2 1.2-1.3 2.1-2.5 2.1h-21.2c-5.3 0-6.4 2-6.4 5.2v7.9c0 7.1-5.8 13-12.9 13zm0-33c-4.4 0-7.9 3.5-7.9 7.9v12.1c0 4.4 3.5 7.9 7.9 7.9s7.9-3.5 7.9-7.9v-7.9c0-4.7 2-10.3 11.4-10.3h18.8c-.4-4-3.9-7.2-8.1-7.2-2 0-3.9.7-5.4 2.1-1.8 1.6-4.6 1.8-6.7.5-1.1-.7-2.3-1-3.5-1-2.1 0-4 1-5.2 2.6-1.5 2-4.1 2.7-6.4 1.8-.9-.4-1.9-.6-2.8-.6z"/><g fill="#f9e2b8"><circle cx="19.4" cy="15.3" r="1.1"/><circle cx="23.1" cy="18.4" r="1.1"/><circle cx="16.5" cy="20.9" r="1.1"/><circle cx="19.7" cy="36.9" r="1.1"/><circle cx="15.7" cy="33.5" r="1.1"/><circle cx="20.1" cy="31.8" r="1.1"/><circle cx="53.8" cy="10.5" r="1.1"/><circle cx="50" cy="9" r="1.1"/></g></svg>