<svg viewBox="0 0 72 72" xmlns="http://www.w3.org/2000/svg"><path d="m46.92 36.95c-1.48 2.4-3.15 5.12-8.48 6s-8.15-.51-10.3-1.62a6.41 6.41 0 0 0 -3.78-1.07c-1.46.16-2.09 1.2-2.88 2.51-1.1 1.81-2.46 4.07-6.57 4.51a8.74 8.74 0 0 1 -6.42-1.81c1.39 5.26 5.34 13.09 33.21 7.78 24.3-4.68 23.72-14.07 23.4-19.11 0-.14-.09-.45-.1-.58a12.56 12.56 0 0 1 -9.84.35c-1.72-.64-3.07-1.46-4.91-.79s-2.31 2.16-3.33 3.83z" fill="#fdb627"/><path d="m63.19 26.38c-.83-3.53-5.47-11.23-30.56-6.51-11.83 2.23-19.91 6.22-23.38 11.54a10.52 10.52 0 0 0 -1.68 8l1 4.06a7.34 7.34 0 0 0 6.21 2.27c3.37-.37 4.38-2 5.45-3.8.85-1.4 1.81-3 4-3.22a7.76 7.76 0 0 1 4.59 1.28c2.06 1.06 4.4 2.26 9.38 1.47 4.65-.74 6-2.94 7.44-5.27 1.07-1.74 2.18-3.54 4.63-4.45s4.26-.16 6.09.53c2.2.82 4.47 1.67 8.13.1a9.66 9.66 0 0 0 -.21-1.23zm-28.56 3.33a56.94 56.94 0 0 1 -8 1.34c-.59 0-1.15.08-1.64.08-1.59 0-2.64-.3-2.87-1.26-.3-1.26 1.19-2.13 3.52-3.06a56.85 56.85 0 0 1 7.72-2.33c5.41-1.27 12-2.32 12.46-.16s-5.82 4.12-11.19 5.39z" fill="#9b4b51"/><g fill="#414042"><path d="m64.91 32.7c0-.38 0-.75-.06-1.08l-.15-1.48c0-.25-.08-.5-.14-.74l-1.08-4.6c-2.8-12-23.32-9.45-32-7.82-12.21 2.3-20.29 6.36-24 12.08a12.07 12.07 0 0 0 -1.9 9.31l.13.63.8 3.4.11.45v.11c1.45 6.18 5 11.61 18.36 11.61a86.83 86.83 0 0 0 15.94-1.78c24.95-4.79 24.32-14.73 23.99-20.09zm-55.76-2.55c3.37-5.17 11.22-9 22.71-11.2 24.37-4.58 28.88 2.88 29.68 6.31l1.08 4.59a9.19 9.19 0 0 1 .2 1.17 12 12 0 0 1 -1.15.42h-.13a9.47 9.47 0 0 1 -1 .24h-.13a8.12 8.12 0 0 1 -.94.09h-.21a7.76 7.76 0 0 1 -.87 0h-.11q-.42 0-.81-.12h-.1q-.4-.08-.78-.2h-.08l-.76-.25h-.05l-.76-.28c-1.79-.67-3.63-1.36-5.94-.51s-3.48 2.59-4.52 4.33c-1.39 2.26-2.7 4.39-7.22 5.11a12.67 12.67 0 0 1 -9.1-1.43 7.56 7.56 0 0 0 -4.52-1.2c-2.15.23-3.09 1.78-3.92 3.15-1 1.71-2 3.32-5.27 3.68a7.86 7.86 0 0 1 -.85 0h-.83l-.46-.05-.31-.09-.44-.13-.34-.11-.4-.17-.35-.16-.37-.21-.39-.23-.34-.25-.37-.27-.3-.29-.26-.25-.92-3.93a10.2 10.2 0 0 1 1.63-7.76zm31.41 20.68c-24.27 4.62-29.56-1.06-31.27-5.83l.15.07a9 9 0 0 0 1 .43l.26.1a8.76 8.76 0 0 0 1.18.33h.16a9 9 0 0 0 1.09.13h.53a9.86 9.86 0 0 0 1.01-.06c4.25-.46 5.71-2.87 6.77-4.63.82-1.36 1.3-2.07 2.42-2.2a5.81 5.81 0 0 1 3.39 1 14.7 14.7 0 0 0 10.33 1.62c5.42-.86 7.19-3.73 8.61-6 .95-1.54 1.76-2.87 3.51-3.51s2.91-.11 4.55.51l.43.21h.07l.38.14h.11l.35.12h.15l.34.1h.16l.35.09h.17a16.3 16.3 0 0 0 3.6.21 8.39 8.39 0 0 0 2.57-.68c.31 5.26.37 13.52-22.37 17.85z"/><path d="m24.47 29.9c.49 0 1 0 1.6-.08a55.33 55.33 0 0 0 7.73-1.31 55.32 55.32 0 0 0 7.51-2.26c2.27-.91 3.73-1.77 3.44-3s-2-1.37-4.42-1.17a55.21 55.21 0 0 0 -7.74 1.31c-7.66 1.8-11.34 3.57-10.95 5.27.24.94 1.27 1.24 2.83 1.24zm8.59-4.57a46.4 46.4 0 0 1 8.42-1.33 46.46 46.46 0 0 1 -8.13 2.56 46.41 46.41 0 0 1 -8.42 1.32 46.46 46.46 0 0 1 8.13-2.56z"/></g></svg>